<svg xmlns="http://www.w3.org/2000/svg" width="90.002" height="72.59" viewBox="0 0 23.813 19.206" xmlns:v="https://vecta.io/nano"><path d="M8.417 16.075h6.959v1.253H8.417z" fill="#fff"/><path d="M11.548 1.392h.696v4.175h-.696z" fill="#3c5469"/><ellipse cx="11.896" cy="12.247" rx="10.438" ry="6.959" fill="#fff" fill-opacity=".999"/><path d="M1.945 10.16s-1.336.97-1.322 2.047c.016 1.261 1.322 2.128 1.322 2.128.462-.814.508-1.366.508-2.088s-.057-1.378-.508-2.088zm19.923 0s1.336.97 1.322 2.047c-.016 1.261-1.322 2.128-1.322 2.128-.462-.814-.508-1.366-.508-2.088s.057-1.378.508-2.088z" fill="#3c5469"/><g fill="#7bfcca"><path d="M1.114 10.843c-.467 0-1.113.623-1.113 1.392s.647 1.392 1.113 1.392h.306c.13-.431.198-.925.199-1.428a5.11 5.11 0 0 0-.176-1.355zm21.585 0c.467 0 1.113.623 1.113 1.392s-.647 1.392-1.113 1.392h-.306c-.13-.431-.198-.925-.199-1.428a5.11 5.11 0 0 1 .176-1.355z"/><circle cx="8.069" cy="11.899" r="2.436"/><circle cx="15.723" cy="11.899" r="2.436"/></g><g fill="#3c5469"><circle cx="15.654" cy="11.83" r="2.088"/><circle cx="7.999" cy="11.83" r="2.088"/><circle cx="11.896" cy=".835" r=".835"/></g><circle cx="12.08" cy=".744" r=".522" fill="#7bfcca"/><path d="M11.2 16.075h1.392v1.253H11.2zm-2.088 0h1.392v1.253H9.112zm4.176 0h1.392v1.253h-1.392z" fill="#fff"/></svg>